PathFileType	4	(X/Y/Z)	/Users/itak/Documents/Research/Walk-IL/dataset/trc/00445_00167.trc
DataRate	CameraRate	NumFrames	NumMarkers	Units	OrigDataRate	OrigDataStartFrame	OrigNumFrames
100.000000	100.000000	4	54	mm	100.000000	0	501
Frame#	Time	RPSI			L3			STRN			T10			C7			CLAV			RBAK			LBAK			LSHO			LUPA			LAEL			LAOL			LWTS			LWPS			LFRA			LIFD			LHPS			LHTS			RSHO			RUPA			RAEL			RAOL			RWTS			RWPS			RFRA			RIFD			RHTS			RHPS			RBHD			LFHD			RFHD			LBHD			LHIP			RHIP			RASI			LASI			LKNE			LTHI			LANK			LTIP			LTOE			LMT1			LMT5			LHEE			RKNE			RTHI			RANK			RTIP			RTOE			RMT1			RMT5			RHEE			LPSI			*53			
		X1	Y1	Z1	X2	Y2	Z2	X3	Y3	Z3	X4	Y4	Z4	X5	Y5	Z5	X6	Y6	Z6	X7	Y7	Z7	X8	Y8	Z8	X9	Y9	Z9	X10	Y10	Z10	X11	Y11	Z11	X12	Y12	Z12	X13	Y13	Z13	X14	Y14	Z14	X15	Y15	Z15	X16	Y16	Z16	X17	Y17	Z17	X18	Y18	Z18	X19	Y19	Z19	X20	Y20	Z20	X21	Y21	Z21	X22	Y22	Z22	X23	Y23	Z23	X24	Y24	Z24	X25	Y25	Z25	X26	Y26	Z26	X27	Y27	Z27	X28	Y28	Z28	X29	Y29	Z29	X30	Y30	Z30	X31	Y31	Z31	X32	Y32	Z32	X33	Y33	Z33	X34	Y34	Z34	X35	Y35	Z35	X36	Y36	Z36	X37	Y37	Z37	X38	Y38	Z38	X39	Y39	Z39	X40	Y40	Z40	X41	Y41	Z41	X42	Y42	Z42	X43	Y43	Z43	X44	Y44	Z44	X45	Y45	Z45	X46	Y46	Z46	X47	Y47	Z47	X48	Y48	Z48	X49	Y49	Z49	X50	Y50	Z50	X51	Y51	Z51	X52	Y52	Z52	X53	Y53	Z53	X54	Y54	Z54	

1	0	-1684.268798828125	968.1235961914062	-689.1869506835938	-1638.224487304688	1058.536865234375	-725.383056640625	-1426.9375	1260.027587890625	-574.0147705078125	-1657.317016601562	1183.1220703125	-744.0211181640625	-1620.412719726562	1449.200561523438	-690.8826904296875	-1458.022338867188	1373.05322265625	-599.1961059570312	-1722.803466796875	1327.068359375	-649.1170043945312	-1583.785888671875	1403.660278320312	-792.677001953125	-1452.528564453125	1431	-797.0407104492188	-1386.595581054688	1313.75	-875.7301635742188	-1331.326293945312	1096.460205078125	-868.0608520507812	-1431.615112304688	1076.928466796875	-881.1823120117188	-1306.814086914062	898.5873413085938	-768.3790283203125	-1290.814697265625	880.3232421875	-840.0310668945312	-1305.168334960938	1010.359252929688	-853.70263671875	-1287.639526367188	730.1021728515625	-762.9813232421875	-1286.5703125	799.2543334960938	-830.9485473632812	-1287.18017578125	809.4671630859375	-760.6359252929688	-1653.286010742188	1415.91748046875	-517.27490234375	-1705.176025390625	1351.003173828125	-463.7889404296875	-1702.9501953125	1062.994873046875	-406.5813598632812	-1737.785766601562	1045.261840820312	-461.6019897460938	-1582.281127929688	867.5021362304688	-418.1961975097656	-1662.657592773438	845.958740234375	-388.2414245605469	-1699.575439453125	1004.382080078125	-396.6976318359375	-1570.39599609375	710.7022094726562	-402.6065063476562	-1565.5244140625	770.2138671875	-400.3192443847656	-1640.03369140625	761.1807250976562	-383.8229675292969	-1609.090087890625	1644.82421875	-574.7210083007812	-1413.1669921875	1673.338012695312	-639.1220092773438	-1482.496337890625	1674.7138671875	-527.4981079101562	-1530.174560546875	1645.316162109375	-733.8916015625	-1415.293090820312	867.9672241210938	-797.5248413085938	-1686.728881835938	862.7613525390625	-513.4000854492188	-1567.343994140625	904.4153442382812	-486.8051452636719	-1388.706909179688	903.926513671875	-673.5044555664062	-1441.582641601562	445.0008850097656	-767.6678466796875	-1400.549072265625	597.1275634765625	-765.9984741210938	-1518.910278320312	35.55496215820312	-828.7540283203125	-1449.335083007812	294.8277587890625	-789.4967041015625	-1390.047485351562	45.71591949462891	-630.2898559570312	-1466.083618164062	50.61414337158203	-653.085693359375	-1395.113037109375	47.33512496948242	-742.7362670898438	-1595.231689453125	37.14605331420898	-823.2677612304688	-1658.417358398438	468.4480895996094	-535.98095703125	-1660.340942382812	727.8514404296875	-480.6086730957031	-1706.875610351562	45.57001876831055	-585.7849731445312	-1673.55029296875	324.5236511230469	-534.5154418945312	-1507.836181640625	49.27517700195312	-492.6400756835938	-1536.368408203125	53.71912384033203	-560.7864990234375	-1615.38720703125	49.40705490112305	-485.3839111328125	-1732.374267578125	37.05501174926758	-662.56591796875	-1592.01220703125	966.4291381835938	-795.1010131835938	nan	nan	nan	
2	0.01	-1684.289672851562	968.1021118164062	-689.2401123046875	-1638.251831054688	1058.583251953125	-725.4423828125	-1426.9267578125	1260.068725585938	-574.0707397460938	-1657.314208984375	1183.127075195312	-744.0819091796875	-1620.418701171875	1449.209594726562	-690.9808959960938	-1458.025024414062	1373.078857421875	-599.2794189453125	-1722.823120117188	1327.076538085938	-649.1754760742188	-1583.80029296875	1403.71337890625	-792.810302734375	-1452.586669921875	1431.034790039062	-797.1006469726562	-1386.567749023438	1313.8056640625	-875.80908203125	-1331.240966796875	1096.521118164062	-868.1651000976562	-1431.549194335938	1076.966674804688	-881.2493286132812	-1306.589721679688	898.6720581054688	-768.5175170898438	-1290.75048828125	880.3143920898438	-840.1951904296875	-1305.021850585938	1010.412719726562	-853.7398681640625	-1287.426879882812	730.1578369140625	-763.1205444335938	-1286.418823242188	799.2852172851562	-831.026611328125	-1287.010864257812	809.5121459960938	-760.7301635742188	-1653.256225585938	1415.93505859375	-517.3336181640625	-1705.15576171875	1351.03857421875	-463.8212280273438	-1702.94140625	1063.046264648438	-406.6072998046875	-1737.793579101562	1045.2802734375	-461.6091613769531	-1582.2939453125	867.6076049804688	-418.1422119140625	-1662.57421875	846.0155029296875	-388.2054443359375	-1699.480346679688	1004.449462890625	-396.68310546875	-1570.33349609375	710.7454833984375	-402.5777587890625	-1565.497192382812	770.2715454101562	-400.2616271972656	-1640.097900390625	761.2301025390625	-383.8115539550781	-1609.1123046875	1644.845581054688	-574.85546875	-1413.260375976562	1673.356323242188	-639.2777709960938	-1482.569091796875	1674.726806640625	-527.5994873046875	-1530.263061523438	1645.334594726562	-734.0691528320312	-1415.26513671875	867.9415283203125	-797.5505981445312	-1686.712646484375	862.766845703125	-513.4202270507812	-1567.324462890625	904.3773803710938	-486.8680725097656	-1388.712890625	903.961181640625	-673.5722045898438	-1441.595092773438	444.9897155761719	-767.6914672851562	-1400.524291992188	597.1203002929688	-766.0807495117188	-1518.918823242188	35.57109832763672	-828.75439453125	-1449.431274414062	294.8241271972656	-789.5009765625	-1390.047241210938	45.70843505859375	-630.28759765625	-1466.080932617188	50.61265182495117	-653.0866088867188	-1395.113891601562	47.33685302734375	-742.7360229492188	-1595.231323242188	37.14469528198242	-823.2685546875	-1658.420776367188	468.4594421386719	-535.99658203125	-1660.313842773438	727.82568359375	-480.6398315429688	-1706.880737304688	45.57315444946289	-585.7786865234375	-1673.540893554688	324.5232238769531	-534.5263061523438	-1507.835205078125	49.2751350402832	-492.6421508789062	-1536.362915039062	53.72214508056641	-560.7833862304688	-1615.380981445312	49.4052734375	-485.3834838867188	-1732.3828125	37.0589599609375	-662.5401000976562	-1592.168823242188	966.5554809570312	-795.2239379882812	nan	nan	nan	
3	0.02	-1684.316162109375	968.083740234375	-689.3086547851562	-1638.273315429688	1058.63232421875	-725.5157470703125	-1426.91455078125	1260.120483398438	-574.1390380859375	-1657.291381835938	1183.120727539062	-744.1541748046875	-1620.429443359375	1449.217529296875	-691.1041870117188	-1458.030639648438	1373.11083984375	-599.3837890625	-1722.838500976562	1327.0849609375	-649.2526245117188	-1583.831787109375	1403.772827148438	-792.9632568359375	-1452.661376953125	1431.076171875	-797.1805419921875	-1386.539428710938	1313.873168945312	-875.905029296875	-1331.12939453125	1096.601684570312	-868.2979736328125	-1431.459106445312	1077.012084960938	-881.329345703125	-1306.336791992188	898.76220703125	-768.6713256835938	-1290.649047851562	880.3125	-840.3649291992188	-1304.837524414062	1010.478088378906	-853.7799682617188	-1287.18603515625	730.228515625	-763.2694702148438	-1286.225341796875	799.331298828125	-831.111083984375	-1286.80419921875	809.572265625	-760.8356323242188	-1653.225708007812	1415.9560546875	-517.409912109375	-1705.13330078125	1351.083740234375	-463.8625183105469	-1702.930419921875	1063.114624023438	-406.6401977539062	-1737.7861328125	1045.3076171875	-461.6182861328125	-1582.27734375	867.7350463867188	-418.0939331054688	-1662.467407226562	846.0877685546875	-388.1556701660156	-1699.374267578125	1004.534484863281	-396.6664733886719	-1570.253662109375	710.8035278320312	-402.5408325195312	-1565.461303710938	770.3473510742188	-400.1842956542969	-1640.143798828125	761.2866821289062	-383.7873840332031	-1609.14013671875	1644.875122070312	-575.0189208984375	-1413.375854492188	1673.37353515625	-639.4658813476562	-1482.645751953125	1674.739990234375	-527.7291870117188	-1530.380126953125	1645.361572265625	-734.2886962890625	-1415.23828125	867.9234008789062	-797.5849609375	-1686.705322265625	862.7822265625	-513.4574584960938	-1567.301391601562	904.3414916992188	-486.9488220214844	-1388.716430664062	903.998779296875	-673.653076171875	-1441.607543945312	444.9741516113281	-767.7229614257812	-1400.495483398438	597.1032104492188	-766.1937866210938	-1518.9296875	35.5883903503418	-828.7550659179688	-1449.523559570312	294.8171997070312	-789.5093994140625	-1390.046875	45.70064544677734	-630.2854614257812	-1466.078491210938	50.61207962036133	-653.0873413085938	-1395.114379882812	47.33906173706055	-742.7352905273438	-1595.230590820312	37.14322280883789	-823.2687377929688	-1658.422607421875	468.4736328125	-536.0164794921875	-1660.277099609375	727.7908935546875	-480.6782531738281	-1706.885620117188	45.57693481445312	-585.7730712890625	-1673.529907226562	324.5233154296875	-534.5401000976562	-1507.83447265625	49.27477645874023	-492.6442260742188	-1536.356323242188	53.72533416748047	-560.7807006835938	-1615.370239257812	49.40525817871094	-485.3816528320312	-1732.390502929688	37.06416320800781	-662.5170288085938	-1592.337646484375	966.6971435546875	-795.3655395507812	nan	nan	nan	
4	0.03	-1684.345092773438	968.0680541992188	-689.3898315429688	-1638.285766601562	1058.681518554688	-725.60205078125	-1426.901611328125	1260.180541992188	-574.2166137695312	-1657.242797851562	1183.097290039062	-744.232421875	-1620.4443359375	1449.221923828125	-691.2476196289062	-1458.03955078125	1373.1474609375	-599.5027465820312	-1722.844604492188	1327.091918945312	-649.3456420898438	-1583.88330078125	1403.831909179688	-793.125244140625	-1452.750366210938	1431.121826171875	-797.280517578125	-1386.514892578125	1313.948364257812	-876.011962890625	-1330.991943359375	1096.69873046875	-868.4523315429688	-1431.347290039062	1077.061157226562	-881.4177856445312	-1306.077514648438	898.84912109375	-768.8240356445312	-1290.510131835938	880.3204956054688	-840.5171508789062	-1304.627807617188	1010.551208496094	-853.8190307617188	-1286.936279296875	730.3121337890625	-763.410400390625	-1286.001342773438	799.391845703125	-831.1990966796875	-1286.572875976562	809.6461791992188	-760.9414672851562	-1653.199584960938	1415.980102539062	-517.5023803710938	-1705.112915039062	1351.138549804688	-463.9122009277344	-1702.915771484375	1063.197265625	-406.6771850585938	-1737.75830078125	1045.344482421875	-461.6289367675781	-1582.21826171875	867.8768920898438	-418.0595092773438	-1662.339965820312	846.173828125	-388.0926818847656	-1699.265014648438	1004.632629394531	-396.6506042480469	-1570.159790039062	710.876220703125	-402.497314453125	-1565.41748046875	770.439208984375	-400.0881958007812	-1640.15576171875	761.348876953125	-383.7478942871094	-1609.171997070312	1644.912109375	-575.2015380859375	-1413.508422851562	1673.38720703125	-639.673583984375	-1482.716918945312	1674.750610351562	-527.8840942382812	-1530.519653320312	1645.397338867188	-734.5360717773438	-1415.215942382812	867.9185180664062	-797.6285400390625	-1686.715942382812	862.8124389648438	-513.5169677734375	-1567.2783203125	904.3136596679688	-487.0445251464844	-1388.712280273438	904.037109375	-673.7416381835938	-1441.618408203125	444.9542846679688	-767.760986328125	-1400.462158203125	597.0753173828125	-766.3307495117188	-1518.941040039062	35.60390090942383	-828.7559814453125	-1449.602294921875	294.80615234375	-789.5230712890625	-1390.0458984375	45.69350814819336	-630.2838134765625	-1466.076049804688	50.61287307739258	-653.0877685546875	-1395.114379882812	47.34132385253906	-742.7342529296875	-1595.230102539062	37.14224243164062	-823.2689208984375	-1658.422607421875	468.4900817871094	-536.0404663085938	-1660.2314453125	727.7503051757812	-480.7214660644531	-1706.8896484375	45.58100509643555	-585.7689208984375	-1673.519897460938	324.5258178710938	-534.5574951171875	-1507.834228515625	49.27405166625977	-492.6461181640625	-1536.349487304688	53.72807693481445	-560.7787475585938	-1615.355346679688	49.40764999389648	-485.3782653808594	-1732.3974609375	37.0723762512207	-662.4976196289062	-1592.496459960938	966.8384399414062	-795.5128173828125	nan	nan	nan	
